<svg xmlns="http://www.w3.org/2000/svg"><symbol viewBox="0 0 100 100" id="shape-new"><title>new</title> <path fill-rule="evenodd" clip-rule="evenodd" d="M5,50c0,24.853,20.148,45,45,45c24.853,0.003,45-20.147,45-45  C94.997,25.148,74.853,5,50,5C25.148,5,5,25.148,5,50z M57.121,26.113c1.396-0.006,2.524,1.131,2.527,2.528v11.71l11.707-0.003  c1.4,0.006,2.538,1.131,2.531,2.531l0.004,14.245c-0.004,1.396-1.135,2.528-2.528,2.528H59.646v11.71  c0.003,1.396-1.125,2.524-2.524,2.528l-14.242-0.004c-1.397,0.004-2.531-1.131-2.531-2.527V59.652h-11.71  c-1.394,0-2.528-1.135-2.525-2.531L26.11,42.879c0.003-1.4,1.131-2.528,2.528-2.525h11.71V28.638c0-1.394,1.131-2.528,2.528-2.528  L57.121,26.113z"/> </symbol><symbol viewBox="0 0 75 100" id="shape-user"><title>user</title> <path d="M37.5,50C16.797,50,0,66.797,0,87.5C0,94.409,5.591,100,12.5,100h50c6.909,0,12.5-5.591,12.5-12.5  C75,66.797,58.203,50,37.5,50z"/> <path d="M56.25,18.75c0,10.352-8.398,18.75-18.75,18.75s-18.75-8.398-18.75-18.75S27.148,0,37.5,0  S56.25,8.398,56.25,18.75z"/> </symbol></svg>