<svg xmlns="http://www.w3.org/2000/svg"><symbol viewBox="0 0 32.0 32.2" id="shape-back"><title>back</title> <path d="M0,16.001c0,8.835,7.164,16,16,16s16-7.164,16-16c0-8.836-7.164-16-16-16S0,7.166,0,16.001z M19.465,8.544  c0.746,0.746,0.746,1.953,0,2.699l-4.801,4.746l4.801,4.746c0.746,0.746,0.746,1.953,0,2.699c-0.754,0.742-1.973,0.746-2.727,0  l-6.156-6.098c-0.746-0.742-0.746-1.953,0-2.699l6.156-6.094C17.492,7.798,18.711,7.798,19.465,8.544z"/> </symbol><symbol viewBox="0 0 100 100" id="shape-new"><title>new</title> <path fill-rule="evenodd" clip-rule="evenodd" d="M5,50c0,24.853,20.148,45,45,45c24.853,0.003,45-20.147,45-45  C94.997,25.148,74.853,5,50,5C25.148,5,5,25.148,5,50z M57.121,26.113c1.396-0.006,2.524,1.131,2.527,2.528v11.71l11.707-0.003  c1.4,0.006,2.538,1.131,2.531,2.531l0.004,14.245c-0.004,1.396-1.135,2.528-2.528,2.528H59.646v11.71  c0.003,1.396-1.125,2.524-2.524,2.528l-14.242-0.004c-1.397,0.004-2.531-1.131-2.531-2.527V59.652h-11.71  c-1.394,0-2.528-1.135-2.525-2.531L26.11,42.879c0.003-1.4,1.131-2.528,2.528-2.525h11.71V28.638c0-1.394,1.131-2.528,2.528-2.528  L57.121,26.113z"/> </symbol><symbol viewBox="0 0 75 100" id="shape-user"><title>user</title> <path d="M37.5,50C16.797,50,0,66.797,0,87.5C0,94.409,5.591,100,12.5,100h50c6.909,0,12.5-5.591,12.5-12.5  C75,66.797,58.203,50,37.5,50z"/> <path d="M56.25,18.75c0,10.352-8.398,18.75-18.75,18.75s-18.75-8.398-18.75-18.75S27.148,0,37.5,0  S56.25,8.398,56.25,18.75z"/> </symbol><symbol viewBox="0.0 0.0 100.0 100.0" id="shape-user2"><title>user2</title> <path d="M49.68,4.735c-26.233,0-47.5,21.267-47.5,47.5c0,11.953,4.425,22.866,11.713,31.215  c1.687-4.672,7.224-8.066,12.339-10.894l0.424-0.234c1.59-0.88,4.549-2.517,7.297-3.619c0.297-0.12,0.61-0.24,0.932-0.362  c2.631-1.002,4.51-1.872,4.712-3.955c0.176-1.813-0.724-2.952-1.968-4.528c-0.319-0.404-0.651-0.825-0.98-1.276  c-5.184-7.127-7.441-14.515-6.9-22.586c0.702-10.474,7.301-17.689,17.22-18.83c1.04-0.12,2.075-0.181,3.078-0.181  c5.919,0,10.933,2.045,14.5,5.913c4.036,4.376,5.848,10.658,5.239,18.168c-0.338,4.201-2.016,9.417-4.377,13.612  c-0.609,1.085-1.432,2.153-2.228,3.186c-1.945,2.527-3.783,4.914-3.05,7.707c0.478,1.812,4.566,3.322,7.01,4.225  c0.723,0.268,1.357,0.503,1.828,0.71c4.958,2.176,14.121,6.207,16.556,12.879c7.254-8.34,11.655-19.227,11.655-31.148  C97.179,26.002,75.913,4.735,49.68,4.735z"/> </symbol></svg>