<svg xmlns="http://www.w3.org/2000/svg"><symbol viewBox="0 0 32.0 32.2" id="shape-back"><title>back</title> <path d="M0,16.001c0,8.835,7.164,16,16,16s16-7.164,16-16c0-8.836-7.164-16-16-16S0,7.166,0,16.001z M19.465,8.544  c0.746,0.746,0.746,1.953,0,2.699l-4.801,4.746l4.801,4.746c0.746,0.746,0.746,1.953,0,2.699c-0.754,0.742-1.973,0.746-2.727,0  l-6.156-6.098c-0.746-0.742-0.746-1.953,0-2.699l6.156-6.094C17.492,7.798,18.711,7.798,19.465,8.544z"/> </symbol><symbol viewBox="0 0 100 100" id="shape-delete"><title>delete</title> <path d="M40.009,71.341c0.023,0.165,0.317,0.43,0.48,0.43h20.521c0.162,0,0.457-0.265,0.477-0.43l3.146-28.299H36.866
	L40.009,71.341z"/> <g> <path d="M50.75,2C23.594,2,1.5,24.092,1.5,51.25c0,27.158,22.094,49.25,49.25,49.25S100,78.408,100,51.25
		C100,24.091,77.906,2,50.75,2z M61.012,79.979H40.491c-4.36,0-8.158-3.395-8.638-7.732l-3.366-30.321
		c-0.811-0.744-1.335-1.799-1.335-2.989c0-2.269,1.836-4.104,4.104-4.104h11.287c0-4.532,3.673-8.208,8.207-8.208
		s8.208,3.675,8.208,8.208h11.287c2.27,0,4.104,1.835,4.106,4.104c0,1.189-0.526,2.24-1.337,2.989l-3.368,30.321
		C69.169,76.585,65.371,79.979,61.012,79.979z"/> </g> </symbol><symbol viewBox="0 0 100 100" id="shape-edit"><title>edit</title> <path d="M50.75,1.5C23.499,1.5,1.5,23.499,1.5,50.75C1.5,78.002,23.499,100,50.75,100C78.002,100,100,78.002,100,50.75
	C100,23.499,78.002,1.5,50.75,1.5L50.75,1.5z M22.732,36.632c-0.985-1.095-1.642-2.408-1.642-3.94c0-1.532,0.657-2.846,1.642-3.94
	l6.02-6.02c1.095-1.094,2.408-1.642,3.94-1.642c1.532,0,2.846,0.657,3.94,1.642l4.159,4.159L27,40.791L22.732,36.632z M56.879,70.23
	c-0.438-0.108-0.876-0.437-1.204-0.766L28.971,42.761l7.771-7.771l28.784,28.894l-4.816,4.815l7.114,1.97
	c0.219,0,0.329,0.109,0.438,0.328l2.736-2.736c-0.108-0.108-0.219-0.219-0.328-0.328l-1.97-7.113l-0.876,0.875L38.93,32.692
	l3.831-3.831l26.813,26.705c0.328,0.328,0.548,0.765,0.767,1.203l5.144,18.496L56.879,70.23z"/> </symbol><symbol viewBox="0 0 100.0 100.0" id="shape-groups"><title>groups</title>  <g id="groups-Your_Icon"> <g> <g id="groups-XMLID_2_"> <g> <g id="groups-XMLID_3_"> <g> <path d="M42.966,51.018h0.606c-0.168-0.14-0.33-0.268-0.476-0.422c-4.806-4.341-8.473-12.778-8.473-19.599        c0-9.65,7.9-15.998,15.371-15.998c7.465,0,14.968,6.867,14.968,16.513c0,6.818-4.056,14.999-9.074,19.191        c1.031,3.933,6.678,5.22,18.324,8.414c12.939,3.552,11.579,15.705,10.673,18.245c-1.497,4.195-68.574,4.971-69.839,0        c-0.281-2.057-3.246-14.693,9.695-18.245C36.067,56.008,41.709,54.703,42.966,51.018z"/> <path d="M43.572,51.018h-0.606c0.05-0.14,0.088-0.275,0.129-0.422C43.24,50.75,43.405,50.879,43.572,51.018z"/> </g> </g> </g> </g> <path d="M24.331,57.623l2.164-0.592c4.106-1.121,7.357-2.015,9.796-2.903c-1.913-0.847-3.007-1.78-3.362-3.132    c1.643-1.373,3.129-3.331,4.302-5.512c-2.513-4.452-4.157-9.818-4.157-14.486c0-1.709,0.289-3.44,0.814-5.118    c-1.656-1.024-3.512-1.602-5.369-1.602c-5.591,0-11.503,4.75-11.503,11.972c0,5.104,2.744,11.418,6.34,14.667    c0.109,0.115,0.231,0.211,0.356,0.316h-0.454c-0.94,2.758-5.162,3.734-13.638,6.061c-9.684,2.658-7.465,12.114-7.255,13.653    c0.272,1.069,4.622,1.781,10.697,2.181C12.811,63.074,18.851,59.126,24.331,57.623z"/> <path d="M75.385,57.623l-2.164-0.592c-4.106-1.121-7.357-2.015-9.796-2.903c1.913-0.847,3.007-1.78,3.362-3.132    c-1.643-1.373-3.129-3.331-4.302-5.512c2.513-4.452,4.157-9.818,4.157-14.486c0-1.709-0.289-3.44-0.814-5.118    c1.656-1.024,3.512-1.602,5.369-1.602c5.591,0,11.503,4.75,11.503,11.972c0,5.104-2.744,11.418-6.34,14.667    c-0.109,0.115-0.231,0.211-0.356,0.316h0.454c0.94,2.758,5.162,3.734,13.638,6.061c9.684,2.658,7.465,12.114,7.255,13.653    c-0.272,1.069-4.622,1.781-10.697,2.181C86.905,63.074,80.864,59.126,75.385,57.623z"/> </g> </g> </symbol><symbol viewBox="0 0 100 100" id="shape-new"><title>new</title> <path fill-rule="evenodd" clip-rule="evenodd" d="M5,50c0,24.853,20.148,45,45,45c24.853,0.003,45-20.147,45-45  C94.997,25.148,74.853,5,50,5C25.148,5,5,25.148,5,50z M57.121,26.113c1.396-0.006,2.524,1.131,2.527,2.528v11.71l11.707-0.003  c1.4,0.006,2.538,1.131,2.531,2.531l0.004,14.245c-0.004,1.396-1.135,2.528-2.528,2.528H59.646v11.71  c0.003,1.396-1.125,2.524-2.524,2.528l-14.242-0.004c-1.397,0.004-2.531-1.131-2.531-2.527V59.652h-11.71  c-1.394,0-2.528-1.135-2.525-2.531L26.11,42.879c0.003-1.4,1.131-2.528,2.528-2.525h11.71V28.638c0-1.394,1.131-2.528,2.528-2.528  L57.121,26.113z"/> </symbol><symbol viewBox="0 0 75 100" id="shape-user"><title>user</title> <path d="M37.5,50C16.797,50,0,66.797,0,87.5C0,94.409,5.591,100,12.5,100h50c6.909,0,12.5-5.591,12.5-12.5  C75,66.797,58.203,50,37.5,50z"/> <path d="M56.25,18.75c0,10.352-8.398,18.75-18.75,18.75s-18.75-8.398-18.75-18.75S27.148,0,37.5,0  S56.25,8.398,56.25,18.75z"/> </symbol><symbol viewBox="0.0 0.0 100.0 100.0" id="shape-user2"><title>user2</title> <path d="M49.68,4.735c-26.233,0-47.5,21.267-47.5,47.5c0,11.953,4.425,22.866,11.713,31.215  c1.687-4.672,7.224-8.066,12.339-10.894l0.424-0.234c1.59-0.88,4.549-2.517,7.297-3.619c0.297-0.12,0.61-0.24,0.932-0.362  c2.631-1.002,4.51-1.872,4.712-3.955c0.176-1.813-0.724-2.952-1.968-4.528c-0.319-0.404-0.651-0.825-0.98-1.276  c-5.184-7.127-7.441-14.515-6.9-22.586c0.702-10.474,7.301-17.689,17.22-18.83c1.04-0.12,2.075-0.181,3.078-0.181  c5.919,0,10.933,2.045,14.5,5.913c4.036,4.376,5.848,10.658,5.239,18.168c-0.338,4.201-2.016,9.417-4.377,13.612  c-0.609,1.085-1.432,2.153-2.228,3.186c-1.945,2.527-3.783,4.914-3.05,7.707c0.478,1.812,4.566,3.322,7.01,4.225  c0.723,0.268,1.357,0.503,1.828,0.71c4.958,2.176,14.121,6.207,16.556,12.879c7.254-8.34,11.655-19.227,11.655-31.148  C97.179,26.002,75.913,4.735,49.68,4.735z"/> </symbol><symbol viewBox="0 0 100 100" id="shape-view"><title>view</title> <path d="M59.736,43.394c0-7.922-6.445-14.367-14.368-14.367c-7.922,0-14.367,6.445-14.367,14.367s6.445,14.369,14.367,14.369
	C53.29,57.763,59.736,51.316,59.736,43.394z"/> <path d="M50.712,1.461c-27.178,0-49.289,22.11-49.289,49.289c0,27.178,22.111,49.288,49.289,49.288
	C77.89,100.038,100,77.928,100,50.75C100,23.571,77.89,1.461,50.712,1.461z M21.271,43.396c0-13.288,10.81-24.098,24.097-24.098
	s24.096,10.809,24.096,24.097c0,5.01-1.538,9.667-4.165,13.528l12.903,12.754c1.805,1.785,1.805,4.679,0,6.464
	c-0.902,0.893-2.085,1.337-3.269,1.337c-1.183,0-2.367-0.444-3.27-1.337L58.781,63.404c-3.837,2.581-8.452,4.089-13.413,4.089
	C32.081,67.493,21.271,56.683,21.271,43.396z"/> </symbol></svg>